<svg width="20" height="20" viewBox="0 0 20 20" fill="none" xmlns="http://www.w3.org/2000/svg">
    <path d="M18.8593 6.36985L11.9293 0.829849C10.8593 -0.0301508 9.12929 -0.0301508 8.06929 0.819849L1.13929 6.36985C0.359289 6.98985 -0.140712 8.29985 0.0292885 9.27985L1.35929 17.2398C1.59929 18.6598 2.95929 19.8098 4.39929 19.8098H15.5993C17.0293 19.8098 18.3993 18.6498 18.6393 17.2398L19.9693 9.27985C20.1293 8.29985 19.6293 6.98985 18.8593 6.36985ZM9.99929 13.4998C8.61929 13.4998 7.49929 12.3798 7.49929 10.9998C7.49929 9.61985 8.61929 8.49985 9.99929 8.49985C11.3793 8.49985 12.4993 9.61985 12.4993 10.9998C12.4993 12.3798 11.3793 13.4998 9.99929 13.4998Z" fill="#292D32"/>
</svg>